<?xml version="1.0" standalone="no"?>
<!DOCTYPE svg PUBLIC "-//W3C//DTD SVG 20010904//EN"
 "http://www.w3.org/TR/2001/REC-SVG-20010904/DTD/svg10.dtd">
<svg version="1.0" xmlns="http://www.w3.org/2000/svg"
 width="938.000000pt" height="938.000000pt" viewBox="0 0 938.000000 938.000000"
 preserveAspectRatio="xMidYMid meet">
<metadata>
Created by potrace 1.11, written by Peter Selinger 2001-2013
</metadata>
<g transform="translate(0.000000,938.000000) scale(0.100000,-0.100000)"
fill="#000000" stroke="none">
<path d="M5953 5960 c-95 -26 -179 -50 -187 -53 -11 -5 -7 -27 20 -122 20 -69
38 -158 44 -223 6 -65 10 -520 10 -1149 l0 -1043 205 0 205 0 0 848 c0 466 4
875 9 909 16 105 51 166 154 268 136 134 265 213 305 187 9 -7 1 -19 -33 -46
-25 -21 -45 -42 -45 -47 0 -5 108 -9 265 -9 l265 0 0 256 0 256 -57 -49 -56
-50 -109 56 c-103 53 -111 55 -186 56 -71 0 -85 -4 -156 -39 -91 -44 -203
-150 -304 -284 l-62 -83 0 66 c0 129 -58 339 -95 342 -11 0 -98 -21 -192 -47z"/>
<path d="M4579 5559 c-224 -19 -429 -103 -628 -259 -39 -30 -71 -59 -71 -64 0
-9 239 -296 246 -296 2 0 41 28 87 63 133 101 244 147 356 147 78 0 129 -19
177 -65 49 -47 65 -94 65 -194 1 -232 -168 -486 -621 -936 l-161 -160 -45 50
-44 50 3 -255 2 -255 195 -3 c107 -1 201 0 208 3 10 4 2 20 -30 58 -24 28 -49
59 -56 68 -11 14 24 51 265 279 153 144 315 301 361 349 233 243 383 476 426
664 54 231 -31 497 -199 627 -141 109 -307 149 -536 129z"/>
<path d="M2845 5054 c-11 -2 -45 -9 -75 -15 -216 -43 -411 -226 -494 -465 -45
-129 -59 -233 -53 -409 6 -190 25 -273 95 -415 38 -78 61 -110 132 -181 70
-71 100 -94 171 -128 92 -44 193 -71 272 -71 l49 0 -58 53 c-32 28 -74 66 -94
84 l-35 32 73 74 74 74 -31 11 c-127 45 -171 178 -172 522 0 272 29 393 114
465 22 19 55 38 74 41 23 4 58 29 108 76 41 39 75 73 75 78 0 9 -190 180 -199
179 -3 -1 -15 -3 -26 -5z"/>
<path d="M3000 5053 c0 -5 41 -44 90 -87 l91 -80 -77 -77 -77 -77 30 -15 c93
-49 136 -151 153 -368 10 -127 2 -335 -16 -417 -28 -126 -69 -194 -135 -226
-26 -12 -81 -54 -123 -93 l-77 -70 95 -86 94 -87 58 11 c270 48 473 253 548
553 38 149 39 411 2 568 -59 255 -269 475 -506 531 -89 21 -150 29 -150 20z"/>
<path d="M4634 3771 c-21 -4 -71 -44 -159 -128 l-128 -122 35 -43 c20 -24 47
-55 61 -71 l26 -27 432 2 433 3 48 185 c26 102 48 191 48 198 0 9 -82 12 -382
11 -211 -1 -397 -4 -414 -8z"/>
</g>
</svg>
