<?xml version="1.0" standalone="no"?>
<!DOCTYPE svg PUBLIC "-//W3C//DTD SVG 20010904//EN"
 "http://www.w3.org/TR/2001/REC-SVG-20010904/DTD/svg10.dtd">
<svg version="1.0" xmlns="http://www.w3.org/2000/svg"
 width="700.000000pt" height="700.000000pt" viewBox="0 0 700.000000 700.000000"
 preserveAspectRatio="xMidYMid meet">
<metadata>
Created by potrace 1.11, written by Peter Selinger 2001-2013
</metadata>
<g transform="translate(0.000000,700.000000) scale(0.100000,-0.100000)"
fill="#000000" stroke="none">
<path d="M5281 5284 c-151 -41 -276 -76 -278 -78 -2 -2 14 -63 37 -136 79
-259 74 -129 77 -1872 l4 -1558 284 0 285 0 0 1194 c0 1240 2 1296 42 1405 56
149 211 315 437 464 86 58 144 76 197 63 25 -7 24 -8 -42 -69 l-68 -62 50 -7
c27 -3 192 -7 367 -7 l317 -1 0 351 0 350 -27 -20 c-16 -10 -48 -40 -73 -65
-24 -25 -50 -46 -57 -46 -7 0 -36 15 -65 34 -247 157 -430 167 -633 34 -102
-66 -235 -199 -355 -356 l-95 -124 -2 64 c-4 90 -21 211 -44 301 -23 89 -68
217 -78 216 -3 0 -129 -34 -280 -75z"/>
<path d="M3315 4720 c-315 -32 -594 -152 -887 -384 -42 -34 -77 -63 -78 -67 0
-5 294 -356 329 -392 18 -18 22 -16 123 61 314 236 598 284 773 130 69 -60 96
-143 96 -286 0 -158 -40 -280 -155 -476 -118 -200 -303 -418 -684 -806 l-271
-275 -38 45 c-21 24 -48 56 -60 70 l-22 25 -1 -347 0 -348 291 0 291 0 -81 95
-81 94 453 429 c466 442 600 581 748 780 226 301 316 511 326 759 6 139 -5
218 -48 348 -89 269 -290 449 -587 526 -91 24 -298 33 -437 19z"/>
<path d="M816 3994 c-343 -68 -607 -309 -731 -669 -49 -144 -66 -246 -72 -442
-9 -299 24 -480 127 -688 108 -220 235 -352 433 -449 62 -30 139 -62 172 -70
72 -18 227 -39 250 -34 11 2 -25 40 -109 116 -69 62 -126 116 -126 120 0 5 45
52 99 106 99 97 99 97 73 107 -132 50 -188 128 -226 310 -24 116 -36 267 -36
438 0 258 28 438 86 558 35 73 112 139 186 161 52 15 73 29 159 110 54 52 99
97 99 101 0 3 -59 59 -131 124 -143 129 -134 125 -253 101z"/>
<path d="M1138 3983 c17 -16 77 -68 132 -118 l100 -90 -107 -107 c-59 -59
-105 -109 -102 -111 2 -3 22 -14 45 -25 83 -42 149 -151 178 -292 9 -41 21
-151 28 -243 20 -285 -12 -591 -78 -738 -32 -71 -112 -149 -170 -167 -26 -8
-73 -44 -144 -111 l-105 -98 55 -49 c30 -27 88 -79 130 -116 44 -40 84 -68 97
-68 36 0 156 28 219 51 143 52 310 179 414 313 103 135 180 320 217 526 24
132 24 466 0 604 -66 380 -308 687 -637 806 -80 30 -219 60 -273 60 l-31 0 32
-27z"/>
<path d="M3432 2201 c-51 -6 -55 -8 -232 -175 -99 -93 -179 -173 -178 -177 2
-5 35 -47 73 -93 l70 -85 618 -1 c339 0 617 1 617 3 0 1 31 122 69 270 l69
267 -526 -2 c-290 -1 -551 -4 -580 -7z"/>
</g>
</svg>
