<?xml version="1.0" encoding="UTF-8" standalone="no"?>
<!-- Created with Inkscape (http://www.inkscape.org/) -->

<svg
   xmlns:dc="http://purl.org/dc/elements/1.1/"
   xmlns:cc="http://creativecommons.org/ns#"
   xmlns:rdf="http://www.w3.org/1999/02/22-rdf-syntax-ns#"
   xmlns:svg="http://www.w3.org/2000/svg"
   xmlns="http://www.w3.org/2000/svg"
   xmlns:sodipodi="http://sodipodi.sourceforge.net/DTD/sodipodi-0.dtd"
   xmlns:inkscape="http://www.inkscape.org/namespaces/inkscape"
   id="svg2"
   version="1.1"
   inkscape:version="0.91 r13725"
   xml:space="preserve"
   width="507.5"
   height="181.25"
   viewBox="0 0 507.5 181.25"
   sodipodi:docname="logo-rgb-ifgi-text-en.svg"><metadata
     id="metadata8"><rdf:RDF><cc:Work
         rdf:about=""><dc:format>image/svg+xml</dc:format><dc:type
           rdf:resource="http://purl.org/dc/dcmitype/StillImage" /><dc:title></dc:title></cc:Work></rdf:RDF></metadata><defs
     id="defs6" /><sodipodi:namedview
     pagecolor="#ffffff"
     bordercolor="#666666"
     borderopacity="1"
     objecttolerance="10"
     gridtolerance="10"
     guidetolerance="10"
     inkscape:pageopacity="0"
     inkscape:pageshadow="2"
     inkscape:window-width="1680"
     inkscape:window-height="1032"
     id="namedview4"
     showgrid="false"
     inkscape:zoom="0.73300493"
     inkscape:cx="253.75"
     inkscape:cy="90.625"
     inkscape:window-x="0"
     inkscape:window-y="54"
     inkscape:window-maximized="1"
     inkscape:current-layer="g12" /><g
     id="g10"
     inkscape:groupmode="layer"
     inkscape:label="ink_ext_XXXXXX"
     transform="matrix(1.25,0,0,-1.25,0,181.25)"><g
       id="g12"
       transform="scale(0.1,0.1)"><path
         d="m 1272.18,482.43 0,117.691 -18.75,0 0,-116.211 c 0,-26.648 -17.02,-44.164 -42.68,-44.164 -25.67,0 -42.45,17.516 -42.45,44.164 l 0,116.211 -18.75,0 0,-117.691 c 0,-35.035 25.66,-59.461 61.2,-59.461 35.52,0 61.43,24.426 61.43,59.461"
         style="fill:#004286;fill-opacity:1;fill-rule:nonzero;stroke:none"
         id="path14"
         inkscape:connector-curvature="0" /><path
         d="m 1412.91,424.449 0,77.719 c 0,14.062 -3.95,25.414 -12.59,33.805 -7.4,7.402 -18.01,11.347 -31.08,11.347 -13.57,0 -25.42,-4.933 -34.05,-14.804 l 0,13.324 -17.77,0 0,-121.391 17.77,0 0,74.758 c 0,21.219 11.84,32.324 30.1,32.324 18.26,0 29.85,-10.859 29.85,-32.324 l 0,-74.758 17.77,0"
         style="fill:#004286;fill-opacity:1;fill-rule:evenodd;stroke:none"
         id="path16"
         inkscape:connector-curvature="0" /><path
         d="m 1473.91,424.449 0,121.391 -17.77,0 0,-121.391 17.77,0 z m 1.23,155.938 0,19.98 -19.99,0 0,-19.98 19.99,0"
         style="fill:#004286;fill-opacity:1;fill-rule:evenodd;stroke:none"
         id="path18"
         inkscape:connector-curvature="0" /><path
         d="m 1603.94,545.84 -19.24,0 -33.31,-97.461 -33.07,97.461 -19.24,0 44.41,-121.391 15.79,0 44.66,121.391"
         style="fill:#004286;fill-opacity:1;fill-rule:nonzero;stroke:none"
         id="path20"
         inkscape:connector-curvature="0" /><path
         d="m 1719.44,480.457 0,8.141 c 0,36.023 -18.5,58.722 -49.84,58.722 -30.84,0 -49.84,-22.945 -49.84,-62.175 0,-42.934 20.97,-62.176 53.05,-62.176 20.73,0 32.07,6.414 44.41,18.75 l -12.09,10.609 c -9.62,-9.621 -17.76,-13.816 -31.83,-13.816 -23.19,0 -35.78,15.297 -35.78,41.945 l 81.92,0 z m -17.76,13.324 -64.16,0 c 0.5,9.867 0.99,13.571 3.71,20.231 4.68,11.101 15.54,18.258 28.37,18.258 12.83,0 23.69,-7.157 28.37,-18.258 2.72,-6.66 3.21,-10.364 3.71,-20.231"
         style="fill:#004286;fill-opacity:1;fill-rule:evenodd;stroke:none"
         id="path22"
         inkscape:connector-curvature="0" /><path
         d="m 1838.15,535.973 c -8.63,8.632 -17.51,11.347 -29.11,11.347 -14.06,0 -27.39,-6.168 -34.05,-16.285 l 0,14.805 -17.76,0 0,-121.391 17.76,0 0,74.512 c 0,18.504 11.35,32.57 29.12,32.57 9.37,0 14.3,-2.218 20.97,-8.883 l 13.07,13.325"
         style="fill:#004286;fill-opacity:1;fill-rule:evenodd;stroke:none"
         id="path24"
         inkscape:connector-curvature="0" /><path
         d="m 1946.24,459.977 c 0,22.699 -14.56,30.843 -35.78,32.816 l -19.49,1.727 c -15.3,1.234 -21.22,7.402 -21.22,17.765 0,12.336 9.38,19.985 27.14,19.985 12.58,0 23.69,-2.957 32.32,-9.622 l 11.6,11.598 c -10.86,8.879 -26.4,13.074 -43.67,13.074 -25.91,0 -44.66,-13.32 -44.66,-35.527 0,-19.988 12.58,-30.598 36.27,-32.57 l 19.98,-1.727 c 14.07,-1.234 20.23,-7.156 20.23,-17.766 0,-14.312 -12.33,-21.464 -32.32,-21.464 -15.05,0 -28.12,3.945 -37.75,14.062 l -11.84,-11.844 c 13.33,-12.828 29.36,-17.515 49.84,-17.515 29.36,0 49.35,13.57 49.35,37.008"
         style="fill:#004286;fill-opacity:1;fill-rule:nonzero;stroke:none"
         id="path26"
         inkscape:connector-curvature="0" /><path
         d="m 1998.86,424.449 0,121.391 -17.77,0 0,-121.391 17.77,0 z m 1.23,155.938 0,19.98 -19.98,0 0,-19.98 19.98,0"
         style="fill:#004286;fill-opacity:1;fill-rule:evenodd;stroke:none"
         id="path28"
         inkscape:connector-curvature="0" /><path
         d="m 2090.16,424.449 0,15.297 -9.38,0 c -11.35,0 -16.53,6.66 -16.53,17.762 l 0,74.023 25.91,0 0,13.571 -25.91,0 0,37.996 -17.77,0 0,-37.996 -15.29,0 0,-13.571 15.29,0 0,-74.515 c 0,-18.012 10.37,-32.567 31.09,-32.567 l 12.59,0"
         style="fill:#004286;fill-opacity:1;fill-rule:nonzero;stroke:none"
         id="path30"
         inkscape:connector-curvature="0" /><path
         d="m 2210.84,545.84 -19.24,0 -33.06,-97.461 -33.31,97.461 -19.25,0 43.68,-118.926 -8.64,-23.687 c -3.95,-11.102 -7.65,-15.047 -19.98,-15.047 l -5.43,0 0,-15.793 7.64,0 c 8.64,0 17.28,2.218 23.69,8.39 3.45,3.207 6.17,7.649 8.64,14.309 l 55.26,150.754"
         style="fill:#004286;fill-opacity:1;fill-rule:nonzero;stroke:none"
         id="path32"
         inkscape:connector-curvature="0" /><path
         d="m 2390.03,485.145 c 0,18.75 -2.47,35.777 -14.81,48.359 -8.38,8.391 -19.98,13.816 -34.79,13.816 -14.8,0 -26.39,-5.425 -34.79,-13.816 -12.33,-12.582 -14.8,-29.609 -14.8,-48.359 0,-18.754 2.47,-35.778 14.8,-48.36 8.4,-8.39 19.99,-13.816 34.79,-13.816 14.81,0 26.41,5.426 34.79,13.816 12.34,12.582 14.81,29.606 14.81,48.36 z m -17.77,0 c 0,-13.571 -0.74,-28.622 -9.62,-37.504 -5.68,-5.672 -13.57,-8.883 -22.21,-8.883 -8.63,0 -16.28,3.211 -21.95,8.883 -8.89,8.882 -9.87,23.933 -9.87,37.504 0,13.57 0.98,28.621 9.87,37.503 5.67,5.672 13.32,8.883 21.95,8.883 8.64,0 16.53,-3.211 22.21,-8.883 8.88,-8.882 9.62,-23.933 9.62,-37.503"
         style="fill:#004286;fill-opacity:1;fill-rule:evenodd;stroke:none"
         id="path34"
         inkscape:connector-curvature="0" /><path
         d="m 2475.68,531.531 0,13.571 -25.91,0 0,22.453 c 0,11.101 4.94,17.765 16.28,17.765 l 9.63,0 0,15.297 -12.83,0 c -20.73,0 -30.84,-14.558 -30.84,-32.57 l 0,-22.945 -15.55,0 0,-13.571 15.55,0 0,-107.082 17.76,0 0,107.082 25.91,0"
         style="fill:#004286;fill-opacity:1;fill-rule:nonzero;stroke:none"
         id="path36"
         inkscape:connector-curvature="0" /><path
         d="m 2720.73,424.449 0,175.672 -18.75,0 -55.77,-124.598 -57.24,124.598 -18.75,0 0,-175.672 18.75,0 0,133.481 48.86,-105.848 16.04,0 48.11,105.848 0,-133.481 18.75,0"
         style="fill:#004286;fill-opacity:1;fill-rule:nonzero;stroke:none"
         id="path38"
         inkscape:connector-curvature="0" /><path
         d="m 2862.66,424.449 0,121.391 -17.77,0 0,-74.758 c 0,-21.223 -12.09,-32.324 -30.35,-32.324 -18.25,0 -29.6,10.855 -29.6,32.324 l 0,74.758 -17.77,0 0,-77.473 c 0,-14.066 3.7,-25.66 12.34,-34.051 7.4,-7.402 18.26,-11.347 31.33,-11.347 13.57,0 25.66,5.179 34.3,15.047 l 0,-13.567 17.52,0 z m -65.14,148.535 0,21.957 -17.77,0 0,-21.957 17.77,0 z m 52.31,0 0,21.957 -17.77,0 0,-21.957 17.77,0"
         style="fill:#004286;fill-opacity:1;fill-rule:evenodd;stroke:none"
         id="path40"
         inkscape:connector-curvature="0" /><path
         d="m 3002.61,424.449 0,77.719 c 0,14.062 -3.95,25.414 -12.58,33.805 -7.4,7.402 -18.01,11.347 -31.09,11.347 -13.57,0 -25.42,-4.933 -34.05,-14.804 l 0,13.324 -17.76,0 0,-121.391 17.76,0 0,74.758 c 0,21.219 11.84,32.324 30.1,32.324 18.26,0 29.86,-10.859 29.86,-32.324 l 0,-74.758 17.76,0"
         style="fill:#004286;fill-opacity:1;fill-rule:evenodd;stroke:none"
         id="path42"
         inkscape:connector-curvature="0" /><path
         d="m 3133.43,459.977 c 0,22.699 -14.55,30.843 -35.77,32.816 l -19.5,1.727 c -15.29,1.234 -21.21,7.402 -21.21,17.765 0,12.336 9.37,19.985 27.14,19.985 12.58,0 23.68,-2.957 32.32,-9.622 l 11.6,11.598 c -10.86,8.879 -26.4,13.074 -43.67,13.074 -25.91,0 -44.67,-13.32 -44.67,-35.527 0,-19.988 12.59,-30.598 36.28,-32.57 l 19.98,-1.727 c 14.06,-1.234 20.23,-7.156 20.23,-17.766 0,-14.312 -12.33,-21.464 -32.32,-21.464 -15.05,0 -28.13,3.945 -37.75,14.062 l -11.84,-11.844 c 13.32,-12.828 29.36,-17.515 49.84,-17.515 29.36,0 49.34,13.57 49.34,37.008"
         style="fill:#004286;fill-opacity:1;fill-rule:nonzero;stroke:none"
         id="path44"
         inkscape:connector-curvature="0" /><path
         d="m 3212.46,424.449 0,15.297 -9.38,0 c -11.35,0 -16.53,6.66 -16.53,17.762 l 0,74.023 25.91,0 0,13.571 -25.91,0 0,37.996 -17.76,0 0,-37.996 -15.3,0 0,-13.571 15.3,0 0,-74.515 c 0,-18.012 10.35,-32.567 31.09,-32.567 l 12.58,0"
         style="fill:#004286;fill-opacity:1;fill-rule:nonzero;stroke:none"
         id="path46"
         inkscape:connector-curvature="0" /><path
         d="m 3338.82,480.457 0,8.141 c 0,36.023 -18.5,58.722 -49.84,58.722 -30.84,0 -49.84,-22.945 -49.84,-62.175 0,-42.934 20.97,-62.176 53.05,-62.176 20.72,0 32.07,6.414 44.41,18.75 l -12.09,10.609 c -9.62,-9.621 -17.76,-13.816 -31.83,-13.816 -23.19,0 -35.77,15.297 -35.77,41.945 l 81.91,0 z m -17.76,13.324 -64.15,0 c 0.49,9.867 0.98,13.571 3.7,20.231 4.68,11.101 15.54,18.258 28.37,18.258 12.83,0 23.69,-7.157 28.38,-18.258 2.71,-6.66 3.2,-10.364 3.7,-20.231"
         style="fill:#004286;fill-opacity:1;fill-rule:evenodd;stroke:none"
         id="path48"
         inkscape:connector-curvature="0" /><path
         d="m 3457.54,535.973 c -8.64,8.632 -17.52,11.347 -29.12,11.347 -14.06,0 -27.39,-6.168 -34.05,-16.285 l 0,14.805 -17.76,0 0,-121.391 17.76,0 0,74.512 c 0,18.504 11.35,32.57 29.11,32.57 9.38,0 14.32,-2.218 20.98,-8.883 l 13.08,13.325"
         style="fill:#004286;fill-opacity:1;fill-rule:evenodd;stroke:none"
         id="path50"
         inkscape:connector-curvature="0" /><path
         d="m 1152.02,712.57 18.7539,0 0,175.672 -18.7539,0 0,-175.672 z"
         style="fill:#004286;fill-opacity:1;fill-rule:nonzero;stroke:none"
         id="path52"
         inkscape:connector-curvature="0" /><path
         d="m 1312,712.57 0,77.719 c 0,14.066 -3.95,25.414 -12.58,33.805 -7.4,7.402 -18.01,11.351 -31.09,11.351 -13.57,0 -25.41,-4.937 -34.05,-14.804 l 0,13.32 -17.76,0 0,-121.391 17.76,0 0,74.762 c 0,21.219 11.85,32.32 30.1,32.32 18.26,0 29.86,-10.855 29.86,-32.32 l 0,-74.762 17.76,0"
         style="fill:#004286;fill-opacity:1;fill-rule:evenodd;stroke:none"
         id="path54"
         inkscape:connector-curvature="0" /><path
         d="m 1440.95,748.102 c 0,22.695 -14.56,30.839 -35.77,32.812 l -19.5,1.727 c -15.3,1.234 -21.22,7.402 -21.22,17.765 0,12.336 9.38,19.985 27.15,19.985 12.58,0 23.68,-2.961 32.32,-9.621 l 11.59,11.593 c -10.85,8.883 -26.4,13.082 -43.67,13.082 -25.91,0 -44.66,-13.328 -44.66,-35.531 0,-19.988 12.58,-30.598 36.27,-32.57 l 19.99,-1.727 c 14.06,-1.234 20.23,-7.156 20.23,-17.765 0,-14.309 -12.34,-21.465 -32.32,-21.465 -15.06,0 -28.13,3.945 -37.75,14.062 l -11.85,-11.84 c 13.33,-12.832 29.37,-17.519 49.85,-17.519 29.35,0 49.34,13.57 49.34,37.012"
         style="fill:#004286;fill-opacity:1;fill-rule:nonzero;stroke:none"
         id="path56"
         inkscape:connector-curvature="0" /><path
         d="m 1518.1,712.57 0,15.297 -9.38,0 c -11.35,0 -16.53,6.66 -16.53,17.766 l 0,74.019 25.91,0 0,13.571 -25.91,0 0,37.996 -17.76,0 0,-37.996 -15.3,0 0,-13.571 15.3,0 0,-74.515 c 0,-18.012 10.36,-32.567 31.08,-32.567 l 12.59,0"
         style="fill:#004286;fill-opacity:1;fill-rule:nonzero;stroke:none"
         id="path58"
         inkscape:connector-curvature="0" /><path
         d="m 1569.3,712.57 0,121.391 -17.76,0 0,-121.391 17.76,0 z m 1.24,155.934 0,19.988 -19.99,0 0,-19.988 19.99,0"
         style="fill:#004286;fill-opacity:1;fill-rule:evenodd;stroke:none"
         id="path60"
         inkscape:connector-curvature="0" /><path
         d="m 1658.73,712.57 0,15.297 -9.38,0 c -11.35,0 -16.53,6.66 -16.53,17.766 l 0,74.019 25.91,0 0,13.571 -25.91,0 0,37.996 -17.76,0 0,-37.996 -15.3,0 0,-13.571 15.3,0 0,-74.515 c 0,-18.012 10.36,-32.567 31.08,-32.567 l 12.59,0"
         style="fill:#004286;fill-opacity:1;fill-rule:nonzero;stroke:none"
         id="path62"
         inkscape:connector-curvature="0" /><path
         d="m 1786.43,712.57 0,121.391 -17.77,0 0,-74.762 c 0,-21.215 -12.09,-32.32 -30.35,-32.32 -18.26,0 -29.61,10.855 -29.61,32.32 l 0,74.762 -17.76,0 0,-77.473 c 0,-14.066 3.7,-25.66 12.34,-34.05 7.4,-7.403 18.26,-11.348 31.33,-11.348 13.57,0 25.66,5.18 34.3,15.051 l 0,-13.571 17.52,0"
         style="fill:#004286;fill-opacity:1;fill-rule:evenodd;stroke:none"
         id="path64"
         inkscape:connector-curvature="0" /><path
         d="m 1875.65,712.57 0,15.297 -9.38,0 c -11.34,0 -16.53,6.66 -16.53,17.766 l 0,74.019 25.91,0 0,13.571 -25.91,0 0,37.996 -17.76,0 0,-37.996 -15.3,0 0,-13.571 15.3,0 0,-74.515 c 0,-18.012 10.36,-32.567 31.09,-32.567 l 12.58,0"
         style="fill:#004286;fill-opacity:1;fill-rule:nonzero;stroke:none"
         id="path66"
         inkscape:connector-curvature="0" /><path
         d="m 2000.14,768.578 0,8.141 c 0,36.023 -18.51,58.726 -49.84,58.726 -30.84,0 -49.84,-22.949 -49.84,-62.179 0,-42.934 20.97,-62.176 53.05,-62.176 20.72,0 32.07,6.414 44.41,18.75 l -12.09,10.609 c -9.62,-9.621 -17.77,-13.816 -31.83,-13.816 -23.2,0 -35.78,15.297 -35.78,41.945 l 81.92,0 z m -17.76,13.324 -64.16,0 c 0.49,9.871 0.99,13.571 3.71,20.231 4.68,11.105 15.54,18.258 28.37,18.258 12.83,0 23.69,-7.153 28.37,-18.258 2.72,-6.66 3.21,-10.36 3.71,-20.231"
         style="fill:#004286;fill-opacity:1;fill-rule:evenodd;stroke:none"
         id="path68"
         inkscape:connector-curvature="0" /><path
         d="m 2141.38,819.652 0,13.571 -25.91,0 0,22.453 c 0,11.101 4.94,17.762 16.29,17.762 l 9.62,0 0,15.3 -12.83,0 c -20.73,0 -30.84,-14.558 -30.84,-32.57 l 0,-22.945 -15.55,0 0,-13.571 15.55,0 0,-107.082 17.76,0 0,107.082 25.91,0"
         style="fill:#004286;fill-opacity:1;fill-rule:nonzero;stroke:none"
         id="path70"
         inkscape:connector-curvature="0" /><path
         d="m 2257.46,773.266 c 0,18.75 -2.47,35.777 -14.8,48.359 -8.39,8.391 -19.99,13.82 -34.79,13.82 -14.81,0 -26.4,-5.429 -34.79,-13.82 -12.34,-12.582 -14.81,-29.609 -14.81,-48.359 0,-18.754 2.47,-35.778 14.81,-48.36 8.39,-8.386 19.98,-13.816 34.79,-13.816 14.8,0 26.4,5.43 34.79,13.816 12.33,12.582 14.8,29.606 14.8,48.36 z m -17.76,0 c 0,-13.571 -0.74,-28.621 -9.63,-37.504 -5.67,-5.676 -13.57,-8.883 -22.2,-8.883 -8.64,0 -16.29,3.207 -21.96,8.883 -8.88,8.883 -9.87,23.933 -9.87,37.504 0,13.57 0.99,28.621 9.87,37.504 5.67,5.675 13.32,8.882 21.96,8.882 8.63,0 16.53,-3.207 22.2,-8.882 8.89,-8.883 9.63,-23.934 9.63,-37.504"
         style="fill:#004286;fill-opacity:1;fill-rule:evenodd;stroke:none"
         id="path72"
         inkscape:connector-curvature="0" /><path
         d="m 2374.55,824.094 c -8.64,8.636 -17.52,11.351 -29.12,11.351 -14.06,0 -27.39,-6.172 -34.05,-16.289 l 0,14.805 -17.76,0 0,-121.391 17.76,0 0,74.512 c 0,18.504 11.35,32.57 29.12,32.57 9.37,0 14.31,-2.222 20.97,-8.882 l 13.08,13.324"
         style="fill:#004286;fill-opacity:1;fill-rule:evenodd;stroke:none"
         id="path74"
         inkscape:connector-curvature="0" /><path
         d="m 2573.25,776.719 0,27.883 -61.93,0 0,-16.532 43.18,0 0,-13.324 c 0,-13.57 -2.71,-23.195 -9.87,-31.828 -8.14,-9.871 -20.48,-15.051 -33.31,-15.051 -11.59,0 -22.69,4.442 -30.34,12.336 -11.11,11.348 -12.34,23.438 -12.34,60.203 0,36.762 1.23,48.606 12.34,59.957 7.65,7.895 18.75,12.582 30.34,12.582 21.97,0 37.75,-13.57 42.69,-35.777 l 18.75,0 c -5.18,30.844 -27.88,52.555 -61.44,52.555 -17.52,0 -33.06,-6.414 -44.9,-18.258 -16.53,-16.527 -16.53,-33.801 -16.53,-71.059 0,-37.254 0,-54.527 16.53,-71.058 11.84,-11.844 27.63,-18.258 44.9,-18.258 18.02,0 34.55,6.906 46.88,20.23 10.86,11.598 15.05,25.168 15.05,45.399"
         style="fill:#004286;fill-opacity:1;fill-rule:nonzero;stroke:none"
         id="path76"
         inkscape:connector-curvature="0" /><path
         d="m 2704.9,768.578 0,8.141 c 0,36.023 -18.51,58.726 -49.84,58.726 -30.84,0 -49.84,-22.949 -49.84,-62.179 0,-42.934 20.97,-62.176 53.05,-62.176 20.72,0 32.07,6.414 44.41,18.75 l -12.09,10.609 c -9.63,-9.621 -17.77,-13.816 -31.83,-13.816 -23.19,0 -35.78,15.297 -35.78,41.945 l 81.92,0 z m -17.77,13.324 -64.15,0 c 0.5,9.871 0.99,13.571 3.7,20.231 4.69,11.105 15.55,18.258 28.38,18.258 12.83,0 23.69,-7.153 28.37,-18.258 2.72,-6.66 3.21,-10.36 3.7,-20.231"
         style="fill:#004286;fill-opacity:1;fill-rule:evenodd;stroke:none"
         id="path78"
         inkscape:connector-curvature="0" /><path
         d="m 2833.58,773.266 c 0,18.75 -2.47,35.777 -14.81,48.359 -8.38,8.391 -19.98,13.82 -34.79,13.82 -14.8,0 -26.39,-5.429 -34.78,-13.82 -12.34,-12.582 -14.81,-29.609 -14.81,-48.359 0,-18.754 2.47,-35.778 14.81,-48.36 8.39,-8.386 19.98,-13.816 34.78,-13.816 14.81,0 26.41,5.43 34.79,13.816 12.34,12.582 14.81,29.606 14.81,48.36 z m -17.77,0 c 0,-13.571 -0.74,-28.621 -9.62,-37.504 -5.67,-5.676 -13.57,-8.883 -22.21,-8.883 -8.63,0 -16.28,3.207 -21.95,8.883 -8.89,8.883 -9.87,23.933 -9.87,37.504 0,13.57 0.98,28.621 9.87,37.504 5.67,5.675 13.32,8.882 21.95,8.882 8.64,0 16.54,-3.207 22.21,-8.882 8.88,-8.883 9.62,-23.934 9.62,-37.504"
         style="fill:#004286;fill-opacity:1;fill-rule:evenodd;stroke:none"
         id="path80"
         inkscape:connector-curvature="0" /><path
         d="m 2887.5,712.57 0,121.391 -17.77,0 0,-121.391 17.77,0 z m 1.23,155.934 0,19.988 -19.98,0 0,-19.988 19.98,0"
         style="fill:#004286;fill-opacity:1;fill-rule:evenodd;stroke:none"
         id="path82"
         inkscape:connector-curvature="0" /><path
         d="m 3025.77,712.57 0,77.719 c 0,14.066 -3.94,25.414 -12.58,33.805 -7.4,7.402 -18.01,11.351 -31.09,11.351 -13.56,0 -25.41,-4.937 -34.05,-14.804 l 0,13.32 -17.76,0 0,-121.391 17.76,0 0,74.762 c 0,21.219 11.85,32.32 30.11,32.32 18.25,0 29.85,-10.855 29.85,-32.32 l 0,-74.762 17.76,0"
         style="fill:#004286;fill-opacity:1;fill-rule:evenodd;stroke:none"
         id="path84"
         inkscape:connector-curvature="0" /><path
         d="m 3114.75,819.652 0,13.571 -25.9,0 0,22.453 c 0,11.101 4.93,17.762 16.28,17.762 l 9.62,0 0,15.3 -12.83,0 c -20.72,0 -30.84,-14.558 -30.84,-32.57 l 0,-22.945 -15.54,0 0,-13.571 15.54,0 0,-107.082 17.77,0 0,107.082 25.9,0"
         style="fill:#004286;fill-opacity:1;fill-rule:nonzero;stroke:none"
         id="path86"
         inkscape:connector-curvature="0" /><path
         d="m 3230.84,773.266 c 0,18.75 -2.47,35.777 -14.81,48.359 -8.39,8.391 -19.98,13.82 -34.79,13.82 -14.8,0 -26.4,-5.429 -34.79,-13.82 -12.33,-12.582 -14.8,-29.609 -14.8,-48.359 0,-18.754 2.47,-35.778 14.8,-48.36 8.39,-8.386 19.99,-13.816 34.79,-13.816 14.81,0 26.4,5.43 34.79,13.816 12.34,12.582 14.81,29.606 14.81,48.36 z m -17.77,0 c 0,-13.571 -0.74,-28.621 -9.62,-37.504 -5.68,-5.676 -13.57,-8.883 -22.21,-8.883 -8.63,0 -16.28,3.207 -21.96,8.883 -8.88,8.883 -9.87,23.933 -9.87,37.504 0,13.57 0.99,28.621 9.87,37.504 5.68,5.675 13.33,8.882 21.96,8.882 8.64,0 16.53,-3.207 22.21,-8.882 8.88,-8.883 9.62,-23.934 9.62,-37.504"
         style="fill:#004286;fill-opacity:1;fill-rule:evenodd;stroke:none"
         id="path88"
         inkscape:connector-curvature="0" /><path
         d="m 3347.92,824.094 c -8.64,8.636 -17.52,11.351 -29.12,11.351 -14.06,0 -27.38,-6.172 -34.04,-16.289 l 0,14.805 -17.77,0 0,-121.391 17.77,0 0,74.512 c 0,18.504 11.35,32.57 29.11,32.57 9.38,0 14.31,-2.222 20.97,-8.882 l 13.08,13.324"
         style="fill:#004286;fill-opacity:1;fill-rule:evenodd;stroke:none"
         id="path90"
         inkscape:connector-curvature="0" /><path
         d="m 3542.71,712.57 0,77.719 c 0,14.066 -4.44,25.414 -13.08,33.805 -7.4,7.152 -18.26,11.351 -31.34,11.351 -17.02,0 -30.59,-6.91 -39.97,-20.234 -7.4,13.324 -20.48,20.234 -37.25,20.234 -13.57,0 -25.67,-4.937 -34.3,-14.804 l 0,13.32 -17.77,0 0,-121.391 17.77,0 0,74.762 c 0,21.219 12.09,32.32 30.35,32.32 18.26,0 29.85,-10.855 29.85,-32.32 l 0,-74.762 17.77,0 0,76.735 c 0,19.246 12.58,30.347 30.35,30.347 18.25,0 29.85,-10.855 29.85,-32.32 l 0,-74.762 17.77,0"
         style="fill:#004286;fill-opacity:1;fill-rule:evenodd;stroke:none"
         id="path92"
         inkscape:connector-curvature="0" /><path
         d="m 3670.67,712.57 0,82.407 c 0,26.402 -16.04,40.468 -48.6,40.468 -19.74,0 -32.08,-3.949 -42.94,-18.015 l 12.09,-11.102 c 7.16,10.117 15.05,13.817 30.6,13.817 22.2,0 31.09,-8.879 31.09,-26.649 l 0,-11.594 -36.52,0 c -27.14,0 -41.94,-13.82 -41.94,-35.039 0,-9.621 3.2,-18.75 9.12,-24.672 7.65,-7.894 17.52,-11.101 34.3,-11.101 16.29,0 25.17,3.207 35.04,13.074 l 0,-11.594 17.76,0 z m -17.76,42.93 c 0,-10.113 -1.98,-17.023 -6.17,-20.973 -7.65,-7.402 -16.78,-8.14 -27.14,-8.14 -19.25,0 -27.88,6.66 -27.88,20.722 0,14.067 8.88,21.469 27.14,21.469 l 34.05,0 0,-13.078"
         style="fill:#004286;fill-opacity:1;fill-rule:evenodd;stroke:none"
         id="path94"
         inkscape:connector-curvature="0" /><path
         d="m 3758.63,712.57 0,15.297 -9.38,0 c -11.35,0 -16.53,6.66 -16.53,17.766 l 0,74.019 25.91,0 0,13.571 -25.91,0 0,37.996 -17.77,0 0,-37.996 -15.29,0 0,-13.571 15.29,0 0,-74.515 c 0,-18.012 10.37,-32.567 31.09,-32.567 l 12.59,0"
         style="fill:#004286;fill-opacity:1;fill-rule:nonzero;stroke:none"
         id="path96"
         inkscape:connector-curvature="0" /><path
         d="m 3809.84,712.57 0,121.391 -17.77,0 0,-121.391 17.77,0 z m 1.23,155.934 0,19.988 -19.98,0 0,-19.988 19.98,0"
         style="fill:#004286;fill-opacity:1;fill-rule:evenodd;stroke:none"
         id="path98"
         inkscape:connector-curvature="0" /><path
         d="m 3939.73,729.102 -12.1,11.597 c -9.13,-10.117 -16.28,-13.82 -27.88,-13.82 -11.84,0 -21.71,4.687 -28.12,13.82 -5.68,7.895 -7.9,17.27 -7.9,32.567 0,15.297 2.22,24.672 7.9,32.57 6.41,9.129 16.28,13.816 28.12,13.816 11.6,0 18.75,-3.453 27.88,-13.57 l 12.1,11.348 c -12.59,13.574 -23.2,18.015 -39.98,18.015 -30.59,0 -53.79,-20.73 -53.79,-62.179 0,-41.453 23.2,-62.176 53.79,-62.176 16.78,0 27.39,4.437 39.98,18.012"
         style="fill:#004286;fill-opacity:1;fill-rule:nonzero;stroke:none"
         id="path100"
         inkscape:connector-curvature="0" /><path
         d="m 4059.26,748.102 c 0,22.695 -14.55,30.839 -35.77,32.812 l -19.49,1.727 c -15.3,1.234 -21.22,7.402 -21.22,17.765 0,12.336 9.37,19.985 27.13,19.985 12.59,0 23.69,-2.961 32.33,-9.621 l 11.59,11.593 c -10.85,8.883 -26.4,13.082 -43.67,13.082 -25.9,0 -44.66,-13.328 -44.66,-35.531 0,-19.988 12.59,-30.598 36.27,-32.57 l 19.99,-1.727 c 14.06,-1.234 20.23,-7.156 20.23,-17.765 0,-14.309 -12.34,-21.465 -32.32,-21.465 -15.05,0 -28.13,3.945 -37.75,14.062 l -11.84,-11.84 c 13.32,-12.832 29.36,-17.519 49.83,-17.519 29.37,0 49.35,13.57 49.35,37.012"
         style="fill:#004286;fill-opacity:1;fill-rule:nonzero;stroke:none"
         id="path102"
         inkscape:connector-curvature="0" /><path
         d="m 1176.7,1017.08 0,128.55 -32.08,0 0,-128.55 32.08,0 z m 0.24,150.51 0,26.15 -32.81,0 0,-26.15 32.81,0"
         style="fill:#004286;fill-opacity:1;fill-rule:evenodd;stroke:none"
         id="path104"
         inkscape:connector-curvature="0" /><path
         d="m 1272.18,1117.5 0,24.43 -23.68,0 0,14.06 c 0,7.4 3.45,11.6 11.1,11.6 l 12.58,0 0,27.14 -18.25,0 c -26.16,0 -37.51,-18.51 -37.51,-36.77 l 0,-16.03 -13.33,0 0,-24.43 13.33,0 0,-100.42 32.08,0 0,100.42 23.68,0"
         style="fill:#004286;fill-opacity:1;fill-rule:nonzero;stroke:none"
         id="path106"
         inkscape:connector-curvature="0" /><path
         d="m 1397.79,1021.77 0,123.86 -31.09,0 0,-12.09 c -8.88,9.87 -17.76,13.57 -31.33,13.57 -12.59,0 -23.69,-4.2 -30.85,-11.35 -12.09,-12.09 -13.07,-28.38 -13.07,-50.83 0,-22.45 0.98,-38.98 13.07,-51.07 7.16,-7.16 18.02,-11.35 30.6,-11.35 12.58,0 22.21,3.45 30.59,12.83 l 0,-13.08 c 0,-13.08 -6.66,-26.647 -25.9,-26.647 -10.86,0 -18.01,2.961 -25.17,9.867 l -19.98,-20.23 c 13.32,-12.832 26.89,-16.777 46.63,-16.777 34.54,0 56.5,22.453 56.5,53.297 z m -32.08,63.16 c 0,-17.02 -2.21,-33.55 -21.21,-33.55 -19,0 -20.98,16.53 -20.98,33.55 0,17.02 1.98,33.31 20.98,33.31 19,0 21.21,-16.29 21.21,-33.31"
         style="fill:#004286;fill-opacity:1;fill-rule:evenodd;stroke:none"
         id="path108"
         inkscape:connector-curvature="0" /><path
         d="m 1465.91,1017.08 0,128.55 -32.08,0 0,-128.55 32.08,0 z m 0.24,150.51 0,26.15 -32.81,0 0,-26.15 32.81,0"
         style="fill:#004286;fill-opacity:1;fill-rule:evenodd;stroke:none"
         id="path110"
         inkscape:connector-curvature="0" /><path
         d="M 0.394531,1022.44 425.836,1447.88 851.066,1022.82 425.625,597.383 0.394531,1022.44"
         style="fill:#deddde;fill-opacity:1;fill-rule:nonzero;stroke:none"
         id="path112"
         inkscape:connector-curvature="0" /><path
         d="m 427.367,415.48 424.668,424.668 0,-406.582 -424.668,-424.66756 0,406.58156"
         style="fill:#a7a5a6;fill-opacity:1;fill-rule:nonzero;stroke:none"
         id="path114"
         inkscape:connector-curvature="0" /><path
         d="m 114.578,1211.25 443.485,-443.566 0,-406.743 -443.485,443.567 0,406.742"
         style="fill:#b2c6db;fill-opacity:1;fill-rule:nonzero;stroke:none"
         id="path116"
         inkscape:connector-curvature="0" /><path
         d="m 114.523,1136.59 37.489,37.48 406.511,-406.511 0,-37.266 -129.878,-129.879 -314.122,314.121 0,222.055"
         style="fill:#004286;fill-opacity:1;fill-rule:nonzero;stroke:none"
         id="path118"
         inkscape:connector-curvature="0" /><path
         d="m 465.188,453.676 93.335,93.336 0,-186.672 -93.335,93.336"
         style="fill:#004286;fill-opacity:1;fill-rule:nonzero;stroke:none"
         id="path120"
         inkscape:connector-curvature="0" /></g></g></svg>