<?xml version="1.0" encoding="UTF-8" standalone="no"?>
<svg width="480px" height="190px" viewBox="0 0 480 190" version="1.1" xmlns="http://www.w3.org/2000/svg" xmlns:xlink="http://www.w3.org/1999/xlink" xmlns:sketch="http://www.bohemiancoding.com/sketch/ns">
    <!-- Generator: Sketch 3.0.4 (8053) - http://www.bohemiancoding.com/sketch -->
    <title>renjin-logo-v4</title>
    <desc>Created with Sketch.</desc>
    <defs/>
    <g id="Page-1" stroke="none" stroke-width="1" fill="none" fill-rule="evenodd" sketch:type="MSPage">
        <g id="renjin-logo-v4" sketch:type="MSLayerGroup" transform="translate(7.000000, 2.000000)">
            <g id="layer4" transform="translate(0.398885, 0.400000)" sketch:type="MSShapeGroup">
                <path d="M0.001115,30 L0.001115,130 L0.001115,80 C0.001115,55 20.001115,30 50.001115,30 C75.001115,30 90.001115,50 90.001115,50" id="path4443" stroke="#000080" stroke-width="14" stroke-linecap="round" stroke-linejoin="round"/>
                <path d="M148.001115,112 C148.001115,112 130.001115,130 105.001115,130 C95.001115,130 55.001115,125 55.001115,80 C55.001115,30 105.001115,30 105.001115,30 C155.001115,30 155.001115,80 155.001115,80 L80.001115,80" id="path4445" stroke="#000080" stroke-width="14" stroke-linecap="round" stroke-linejoin="round"/>
                <path d="M175.001115,30 L175.001115,130 L175.001115,80 C175.001115,30 225.001115,30 225.001115,30 C275.001115,30 275.001115,80 275.001115,80 L275.001115,130" id="path4447" stroke="#000080" stroke-width="14" stroke-linecap="round" stroke-linejoin="round"/>
                <path d="M295.001115,30 L295.001115,130 C295.001115,180 245.001115,180 245.001115,180" id="path4449" stroke="#000080" stroke-width="14" stroke-linecap="round" stroke-linejoin="round"/>
                <path d="M315.001115,30 L315.001115,80 C315.001115,130 365.001115,130 365.001115,130" id="path4451" stroke="#000080" stroke-width="14" stroke-linecap="round" stroke-linejoin="round"/>
                <path d="M365.001115,30 L365.001115,130 L365.001115,80 C365.001115,30 415.001115,30 415.001115,30 C465.001115,30 465.001115,80 465.001115,80 L465.001115,130" id="path4453" stroke="#000080" stroke-width="14" stroke-linecap="round" stroke-linejoin="round"/>
                <path d="M300.001115,5 C300.001115,7.761424 297.762535,10 295.001115,10 C292.239695,10 290.001115,7.761424 290.001115,5 C290.001115,2.238576 292.239695,0 295.001115,0 C297.762535,0 300.001115,2.238576 300.001115,5 L300.001115,5 Z" id="path4455" stroke="#F5002E" stroke-width="4" fill="#F5002E"/>
                <path d="M320.001115,5 C320.001115,7.761424 317.762535,10 315.001115,10 C312.239695,10 310.001115,7.761424 310.001115,5 C310.001115,2.238576 312.239695,0 315.001115,0 C317.762535,0 320.001115,2.238576 320.001115,5 L320.001115,5 Z" id="path4457" stroke="#F5002E" stroke-width="4" fill="#F5002E"/>
            </g>
        </g>
    </g>
</svg>