<?xml version="1.0" encoding="utf-8"?>
<!-- Generator: Adobe Illustrator 15.0.0, SVG Export Plug-In . SVG Version: 6.00 Build 0)  -->
<!DOCTYPE svg PUBLIC "-//W3C//DTD SVG 1.1//EN" "http://www.w3.org/Graphics/SVG/1.1/DTD/svg11.dtd">
<svg version="1.1" id="Ebene_1" xmlns="http://www.w3.org/2000/svg" xmlns:xlink="http://www.w3.org/1999/xlink" x="0px" y="0px"
	 width="127.415px" height="61px" viewBox="0 0 125.5 60.083" enable-background="new 0 0 125.5 60.083" xml:space="preserve">
<g>
	<path fill="#8E141C" d="M84.281,58.504l-0.885-10.006h-2.218l-1.579,5.697c-0.188,0.693-0.319,1.373-0.362,1.677
		c-0.059-0.304-0.146-0.867-0.377-1.706l-1.536-5.668h-2.218l-0.913,10.006h1.638l0.435-6.044c0.044-0.622,0.102-1.576,0.102-1.909
		c0.058,0.333,0.246,1.229,0.435,1.895l1.667,6.059h1.42l1.826-6.333c0.189-0.637,0.319-1.272,0.392-1.605
		c0,0.304,0.029,1.099,0.072,1.735l0.464,6.203H84.281L84.281,58.504z"/>
	<path fill-rule="evenodd" clip-rule="evenodd" fill="#8E141C" d="M92.368,57.983c0,0-0.449-0.361-0.449-1.462v-5.518l-1.536,0.29
		v5.241c-0.247,0.521-0.898,0.956-1.436,0.956c-0.942,0-1.072-0.666-1.072-1.578v-4.909l-1.565,0.29v4.967
		c0,0.912,0.116,1.39,0.406,1.737c0.362,0.435,1,0.725,1.826,0.725c0.84,0,1.551-0.29,2.087-0.898
		c0.13,0.42,0.319,0.681,0.638,0.912L92.368,57.983L92.368,57.983z M88.584,49.381c0-0.564-0.435-1.014-0.971-1.014
		s-0.971,0.449-0.971,1.014c0,0.551,0.435,1.014,0.971,1.014S88.584,49.932,88.584,49.381L88.584,49.381z M91.614,49.381
		c0-0.564-0.435-1.014-0.971-1.014s-0.972,0.449-0.972,1.014c0,0.551,0.436,1.014,0.972,1.014S91.614,49.932,91.614,49.381
		L91.614,49.381z"/>
	<path fill="#8E141C" d="M99.759,58.504v-5.474c0-1.347-0.782-2.027-1.913-2.027c-0.782,0-1.464,0.348-2.246,1.014
		c0-0.391-0.088-0.71-0.262-1.043l-1.449,0.405c0.203,0.521,0.275,0.971,0.275,1.738v5.387h1.565V53.19
		c0.479-0.478,1.145-0.825,1.608-0.825c0.609,0,0.841,0.275,0.841,1.274v4.865H99.759L99.759,58.504z"/>
	<path fill="#8E141C" d="M107.208,56.216c0-0.854-0.391-1.665-1.869-2.042l-0.913-0.231c-0.739-0.188-0.985-0.42-0.985-0.869
		c0-0.564,0.435-0.941,1.115-0.941c0.58,0,1.116,0.175,1.798,0.536l0.521-1.101c-0.623-0.333-1.42-0.637-2.42-0.637
		c-1.624,0-2.725,0.955-2.725,2.331c0,1.028,0.651,1.781,1.753,2.013l0.885,0.188c0.826,0.174,1.188,0.464,1.188,1.028
		c0,0.608-0.493,1.028-1.188,1.028c-0.826,0-1.726-0.392-2.378-0.768l-0.564,1.144c0.942,0.521,1.913,0.812,2.812,0.812
		C106.006,58.708,107.208,57.694,107.208,56.216L107.208,56.216z"/>
	<path fill="#8E141C" d="M112.296,58.375l-0.203-0.956c-0.275,0.102-0.464,0.145-0.681,0.145c-0.696,0-0.899-0.261-0.899-1.173
		v-4.112h1.349l0.42-1.101h-1.754c0-0.725,0.059-1.607,0.131-2.201l-1.638,0.391c-0.072,0.551-0.072,1.188-0.072,1.811h-0.813v1.101
		h0.813v4.532c0,1.043,0.492,1.883,1.912,1.883C111.354,58.693,111.818,58.591,112.296,58.375L112.296,58.375z"/>
	<path fill-rule="evenodd" clip-rule="evenodd" fill="#8E141C" d="M119.442,55.275v-0.333c0-1.709-0.319-2.606-0.957-3.186
		c-0.623-0.564-1.29-0.753-2.015-0.753c-0.928,0-1.652,0.304-2.246,0.984c-0.638,0.725-0.913,1.578-0.913,2.867
		c0,2.347,1.304,3.838,3.377,3.838c0.985,0,1.869-0.318,2.638-0.971l-0.623-0.97c-0.551,0.478-1.146,0.724-1.826,0.724
		c-1.436,0-1.812-1.071-1.812-2.085v-0.116H119.442L119.442,55.275z M117.79,54.102h-2.711c0-1.188,0.493-1.896,1.392-1.896
		C117.268,52.206,117.79,52.915,117.79,54.102L117.79,54.102z"/>
	<path fill="#8E141C" d="M125.094,51.09c-0.188-0.087-0.334-0.116-0.565-0.116c-0.71,0-1.29,0.377-1.87,1.173
		c0-0.405-0.102-0.825-0.274-1.158l-1.465,0.377c0.16,0.448,0.262,1.042,0.262,1.97v5.169h1.594v-4.952
		c0.146-0.594,0.711-1.087,1.377-1.087c0.174,0,0.29,0.044,0.449,0.103L125.094,51.09L125.094,51.09z"/>
	<path fill="#434553" d="M25.389,56.606c-1.228-1.043-1.903-3.252-1.903-6.381V27.093l-5.589,1.104v22.089
		c-1.29,2.7-4.238,4.847-7.001,4.847c-1.352,0-2.764-0.613-3.562-1.35c-1.105-1.043-1.413-2.27-1.413-5.399V34.423l-5.588,1.105
		v14.39c0,2.209,0.184,3.927,0.737,5.154c1.29,2.822,4.36,4.602,8.29,4.602c3.809,0,6.817-1.411,9.273-4.417
		c0.553,2.086,1.352,3.251,2.886,4.417L25.389,56.606L25.389,56.606z"/>
	<path fill="#434553" d="M39.577,58.569l-0.983-3.496c-0.675,0.185-1.535,0-1.903-0.43c-0.615-0.553-0.799-1.289-0.799-4.541V28.795
		c0-3.804,0-6.749-0.553-8.774l-5.896,1.228c0.492,2.393,0.676,4.479,0.676,8.835v21.491c0,3.007,0.245,4.05,1.167,5.339
		c1.167,1.655,2.58,2.331,4.79,2.331C37.427,59.245,38.41,59.061,39.577,58.569L39.577,58.569z"/>
	<path fill-rule="evenodd" clip-rule="evenodd" fill="#434553" d="M68.425,42.739c0-9.694-4.544-15.646-11.852-15.646
		c-3.071,0-5.527,0.921-8.044,3.437l-0.185-0.124c0.123-0.367,0.185-1.901,0.185-3.189v-7.118c0-2.7-0.185-4.356-0.615-6.626
		l-6.018,1.227c0.614,1.718,0.982,3.927,0.982,7.363v29.39c0,3.988-0.37,5.724-0.923,7.196h5.343
		c0.491-0.981,0.677-1.489,1.046-3.453c1.904,2.577,4.851,4.05,7.922,4.05c2.518,0,4.667-0.736,6.633-2.331
		C66.46,54.03,68.425,49.121,68.425,42.739L68.425,42.739z M62.039,42.617c0,4.725-0.737,7.302-1.72,9.02
		c-0.982,1.718-3.009,2.761-5.159,2.761c-2.702,0-5.159-1.533-6.631-3.251V35.56c0.613-0.798,0.798-1.104,1.903-1.901
		c1.597-1.166,3.009-1.657,4.853-1.657c2.333,0,4.298,1.043,5.465,3.19C61.793,37.094,62.039,38.505,62.039,42.617L62.039,42.617z"
		/>
	<g>
		<defs>
			<path id="SVGID_1_" d="M76.882,21.578c0-11.733,9.52-21.244,21.263-21.244s21.262,9.511,21.262,21.244
				c0,11.732-9.519,21.244-21.262,21.244S76.882,33.31,76.882,21.578L76.882,21.578z"/>
		</defs>
		<clipPath id="SVGID_2_">
			<use xlink:href="#SVGID_1_"  overflow="visible"/>
		</clipPath>
		
			<path clip-path="url(#SVGID_2_)" fill-rule="evenodd" clip-rule="evenodd" fill="#A1A2A9" stroke="#FFFFFF" stroke-width="0.5443" stroke-linecap="round" stroke-miterlimit="3.8637" d="
			M110.902,9.747h-0.006c-8.841,1.628-19.278,6.743-27.384,10.532c-0.681,5.191-3.408,13.061,0.791,17.14
			c-0.608-0.367-0.835-1.24-1.395-1.679c-4.672-5.705-3.311-14.106-1.672-20.719c7.03-4.42,21.188-10.171,29.666-8.73
			c0.9,0.078-0.399-1.467-0.598-1.687c-0.826-0.871-0.577,0.19-1.729-0.182c-7.459-2.032-18.697-0.818-24.728,3.697
			c-0.863,1.773-4.773,4.067,0.069-3.017c5.562-4.656,14.396-6.2,21.066-4.476c0.256,0.069,3.015,1.496,3.486,2
			c1.045,0.7,2,1.519,2.842,2.453c0.851,0.974,1.603,2.045,2.071,3.256c-0.073-0.177-0.149-0.354-0.229-0.528
			c0.232,0.538,0.442,1.086,0.632,1.645L110.902,9.747L110.902,9.747z"/>
		
			<path clip-path="url(#SVGID_2_)" fill-rule="evenodd" clip-rule="evenodd" fill="#C7C7CB" stroke="#FFFFFF" stroke-width="0.5443" stroke-linecap="round" stroke-miterlimit="3.8637" d="
			M86.355,8.139v0.005c1.447,8.844,5.786,16.774,9.406,24.859c5.167,0.63,11.137,2.438,15.291-1.812
			c-0.379,0.613-0.795,1.203-1.243,1.768c-5.788,4.739-14.581,2.884-21.148,1.307c-4.271-7-6.46-15.104-5.915-24.198
			c0,0-0.404,0.695-0.935,1.384c-0.898,1.295-1.336,2.802-1.729,3.961c-2.177,7.494,0.071,14.99,4.456,20.988
			c7.396,3.554,21.211,4.085,26.661,0.688c-0.693,0.658-0.628,0.146-1.4,0.707c-4.763,5.364-17.753,6.444-26.699-0.339
			c-5.939-5.406-7.721-14.286-6.145-20.483c1.457-5.728,4.015-9.235,8.562-13.164L86.355,8.139L86.355,8.139z"/>
		
			<path clip-path="url(#SVGID_2_)" fill="#8E141C" stroke="#FFFFFF" stroke-width="0.5443" stroke-linecap="round" stroke-miterlimit="3.8637" d="
			M97.064,35.689c5.143-7.447,7.124-14.384,10.199-22.846c-3.22-4.18-9.515-12.303-15.42-12.219
			c0.695-0.172,1.369-0.649,3.008-0.857c6.465,0.208,14.329,8.581,17.88,14.455c-1.858,8.146-2.523,15.969-9.598,20.974
			c-0.697,0.584,3.417-0.969,4.504-1.523c6.769-3.858,7.923-8.166,9.001-15.668c-2.759-7.902-8.574-16.69-17.256-18.285
			c0.95,0.022,1.524-1.528,2.463-1.379c10.021,2.805,16.964,12.801,17.981,21.663c-0.947,6.764-3.424,13.112-10.487,16.544
			c-0.232,0.133-3.195,1.536-3.892,1.513c-1.245,0.244-2.51,0.341-3.777,0.275c-1.302-0.088-4.818-1.091-5.352-1.354L97.064,35.689
			L97.064,35.689z"/>
		
			<path clip-path="url(#SVGID_2_)" fill="#434553" stroke="#FFFFFF" stroke-width="0.5443" stroke-linecap="round" stroke-miterlimit="3.8637" d="
			M108.249,31.31c4.182-3.19,11.086-8.612,11.002-14.462c0.172,0.689,0.131,3.431,0.217,4.136
			c-0.739,7.335-8.486,11.699-14.361,15.216c-8.148-1.841-15.739-4.266-21.59-11.594c0,0-0.126,2.151-0.143,2.447
			c-0.031,1.199,0.078,2.546,0.634,3.624c3.858,6.705,10.188,9.24,17.693,10.309c7.904-2.733,16.621-10.078,17.82-19.524
			c0.832,7.294-1.8,22.175-19.254,22.397c-9.688,0.174-17.64-4.803-18.907-14.205c-0.245-1.233-0.304-5.653,1.215-9.462
			C82.575,20.19,94.23,28.426,108.249,31.31L108.249,31.31z"/>
	</g>
</g>
</svg>
