<?xml version="1.0" encoding="utf-8"?>
<svg version="1.1" id="WWUMünster_x5F_Logo_x5F_RGB"
	 xmlns="http://www.w3.org/2000/svg" xmlns:xlink="http://www.w3.org/1999/xlink" x="0px" y="0px" viewBox="0 0 226.8 76.5"
	 style="enable-background:new 0 0 226.8 76.5;" xml:space="preserve">
<style type="text/css">
	.st0{fill:#3E3E3B;}
</style>
<path class="st0" d="M214.9,60.9h1.1c0.5,0,0.9,0.1,1.2,0.2c0.5,0.2,0.9,0.8,0.9,1.3c0,0.6-0.2,1-0.5,1.3c-0.3,0.3-0.8,0.4-1.7,0.4
	h-1V60.9z M216,60.1h-2.1v8.7h1.1v-3.9c0.5,0,0.7,0.1,1,0.6c1.2,1.5,2.1,2.8,2.3,3.4h1.4c0,0-1.7-2.5-2.1-3c-0.2-0.2-0.5-0.6-0.9-1
	h0.1c1.5,0,2.4-1,2.4-2.4c0-0.9-0.5-1.5-0.9-1.8C217.8,60.3,217.2,60.1,216,60.1 M209.9,60.1h-5v8.7h5.2v-0.9h-4v-3.2h3.2v-0.9H206
	v-2.9h3.8L209.9,60.1z M201.4,60.1h-6.1v0.9h2.5v7.9h1.1v-7.9h2.5L201.4,60.1z M186.2,67.4l-0.5,0.8c0.9,0.5,1.8,0.8,2.9,0.8
	c0.8,0,1.5-0.2,2.1-0.5c0.8-0.5,1.3-1.3,1.3-2.1c0-0.5-0.2-1.1-0.6-1.5s-0.8-0.6-1.6-0.9l-1.1-0.3c-1.1-0.3-1.5-0.7-1.5-1.4
	c0-0.9,0.7-1.4,1.8-1.4c0.8,0,1.4,0.2,2.2,0.7l0.5-0.8c-0.9-0.6-1.8-0.8-2.8-0.8c-1.8,0-3,1-3,2.5c0,0.6,0.2,1,0.6,1.4
	c0.4,0.4,0.8,0.5,1.6,0.8l0.9,0.3c1.1,0.3,1.6,0.9,1.6,1.6c0,0.5-0.2,0.9-0.7,1.2c-0.4,0.3-0.8,0.4-1.5,0.4
	C187.7,68.1,187,67.9,186.2,67.4 M166.2,60.1h-1.1v6.3c0,0.4,0,0.9,0.3,1.4c0.5,0.9,1.3,1.3,2.7,1.3c1.1,0,1.9-0.2,2.4-0.7
	c0.5-0.4,0.7-0.9,0.7-2v-6.2h-1.1v6.1c0,0.6,0,1-0.3,1.4c-0.3,0.4-0.9,0.5-1.6,0.5c-1.1,0-1.6-0.5-1.8-0.9c-0.1-0.3-0.2-0.8-0.2-1.3
	V60.1z M170.2,58.9c0-0.4-0.3-0.6-0.7-0.6c-0.4,0-0.7,0.3-0.7,0.6c0,0.4,0.3,0.7,0.7,0.7S170.2,59.2,170.2,58.9 M166.7,59.5
	c0.4,0,0.7-0.3,0.7-0.7c0-0.4-0.3-0.6-0.7-0.6c-0.4,0-0.7,0.3-0.7,0.6C166,59.2,166.4,59.5,166.7,59.5 M153,60.1l-0.8,8.7h1.1
	l0.5-6.2c0-0.5,0.1-1.5,0.1-1.7c0,0.2,0.2,0.8,0.5,1.7l1.8,6.2h0.9l2-6.5c0.2-0.5,0.3-1.3,0.4-1.4c0,0.1,0,0.9,0.1,1.5l0.5,6.4h1.1
	l-0.8-8.7h-1.6l-1.7,5.8c-0.2,0.7-0.3,1.3-0.3,1.4c0-0.1-0.1-0.7-0.4-1.5l-1.7-5.7H153z M136.6,64.2H7.1v4.6h129.6V64.2z
	 M136.6,45.2H7.1v2.2h129.6V45.2z M7.1,37h50.3v-4.6H7.1V37z M70.8,12.2h2V7.6h-2V12.2z M67.5,16.2h8.7v-2.2h-8.7V16.2z M64.5,28
	h14.7v-4.6H64.5V28z M86.3,37h50.3v-4.6H86.3V37z M169.4,53.8l5.1-21.5h-4.5l-1.7,8.1c-0.5,2.1-1.1,6.4-1.2,7.1c0,0-0.5-3.6-0.9-5.6
	l-2-9.5h-4.7l-1.9,8.6c-0.6,2.9-1,6-1.1,6.8c0,0-0.3-3-1.1-7l-1.8-8.4h-4.5l5.1,21.5h4.9l1.8-8.7c0.6-2.8,0.9-5.5,1-6
	c0.1,0.8,0.4,3.4,1,6.1l1.9,8.7H169.4z M176.9,60.1h-1.3v8.7h1.1l-0.1-5.1c0-1.1-0.1-2.4-0.1-2.4s0.5,1,1,2.1l3,5.3h1.2v-8.7h-1.1
	l0,4.8c0,1.2,0.1,2.6,0.1,2.7c0-0.1-0.4-1-0.9-1.8L176.9,60.1z M196.6,53.8l5.1-21.5h-4.5l-1.7,8.1c-0.5,2.1-1.1,6.4-1.2,7.1
	c0,0-0.5-3.6-0.9-5.6l-2-9.5h-4.7l-1.9,8.6c-0.6,2.9-1,6-1.1,6.8c0,0-0.3-3-1.1-7l-1.8-8.4h-4.5l5.1,21.5h4.9l1.8-8.7
	c0.6-2.8,0.9-5.5,1-6c0.1,0.8,0.4,3.4,1,6.1l1.9,8.7H196.6z M219.7,46.7V32.4h-4.3V46c0,1.1,0,1.4-0.1,1.9c-0.2,1.6-1.4,2.5-3.2,2.5
	c-1.4,0-2.4-0.5-2.9-1.5c-0.2-0.5-0.4-1.2-0.4-2.5v-14h-4.4v14.8c0,2,0.2,2.9,0.9,4c1.2,1.9,3.6,2.8,6.8,2.8c4.6,0,6.7-2.3,7.2-4
	C219.7,49.1,219.7,48.7,219.7,46.7"/>
</svg>
